<?xml version="1.0" encoding="UTF-8"?>
<svg id="Layer_1" data-name="Layer 1" xmlns="http://www.w3.org/2000/svg" version="1.1" viewBox="0 0 595.28 595.17">
  <defs>
    <style>
      .cls-1 {
        fill: #11284d;
      }

      .cls-1, .cls-2 {
        stroke-width: 0px;
      }

      .cls-2 {
        fill: #fff;
      }
    </style>
  </defs>
  <circle class="cls-1" cx="297.69" cy="297.59" r="297.52"/>
  <path class="cls-2" d="M333.04,281.68c28.69-13.36,48.62-42.45,48.62-76.12,0-46.26-37.64-83.93-83.93-83.93s-83.93,37.64-83.93,83.93c0,33.67,19.93,62.75,48.62,76.12-66.72,15.97-116.5,76.07-116.5,147.62v6h303.62v-6c0-71.55-49.76-131.65-116.5-147.62h0ZM225.81,205.56c0-39.64,32.26-71.93,71.93-71.93s71.93,32.26,71.93,71.93-32.26,71.93-71.93,71.93-71.93-32.26-71.93-71.93ZM158.05,423.3c3.15-74.31,64.59-133.81,139.66-133.81s136.54,59.48,139.69,133.81H158.05Z"/>
</svg>